<svg width="99" height="34" viewBox="0 0 99 34" fill="none" xmlns="http://www.w3.org/2000/svg">
<g clip-path="url(#clip0)">
<path d="M91.1163 -0.00013659H7.88819C7.58482 -0.00013659 7.28508 -0.00013659 6.98251 0.00151804C6.72922 0.00317267 6.47796 0.00797938 6.22224 0.012025C5.66671 0.0185622 5.11249 0.0674355 4.56438 0.15822C4.01705 0.250981 3.48687 0.425861 2.99176 0.676947C2.49725 0.930157 2.04541 1.25918 1.65262 1.65207C1.25777 2.04386 0.928632 2.49672 0.677861 2.99322C0.426399 3.48875 0.252034 4.01974 0.160789 4.56787C0.0686763 5.11531 0.0191097 5.66906 0.0125338 6.22416C0.00485635 6.47781 0.00404557 6.73231 0 6.986V26.1088C0.00404557 26.3657 0.00485635 26.6145 0.0125338 26.8715C0.0191117 27.4266 0.0686783 27.9803 0.160789 28.5277C0.251782 29.0762 0.426157 29.6075 0.677861 30.1032C0.928518 30.5981 1.2577 31.0491 1.65262 31.4387C2.04392 31.8333 2.49606 32.1626 2.99176 32.4139C3.48686 32.6656 4.01699 32.8415 4.56438 32.9357C5.11258 33.0258 5.66675 33.0747 6.22224 33.082C6.47796 33.0876 6.72922 33.0908 6.98251 33.0908C7.28507 33.0925 7.58483 33.0925 7.88819 33.0925H91.1163C91.4136 33.0925 91.7157 33.0925 92.0131 33.0908C92.2652 33.0908 92.5237 33.0876 92.7758 33.082C93.3302 33.0751 93.8833 33.0262 94.4304 32.9357C94.9796 32.8409 95.5116 32.665 96.0091 32.4139C96.5043 32.1624 96.9561 31.8332 97.347 31.4387C97.7409 31.0476 98.0708 30.5969 98.3246 30.1032C98.5744 29.6071 98.7471 29.0758 98.8368 28.5277C98.929 27.9802 98.9803 27.4266 98.9903 26.8715C98.9935 26.6145 98.9935 26.3657 98.9935 26.1088C99 25.8082 99 25.5093 99 25.2039V7.88926C99 7.58628 99 7.28574 98.9935 6.986C98.9935 6.73231 98.9935 6.47781 98.9903 6.22413C98.9804 5.66898 98.929 5.11535 98.8368 4.56784C98.7469 4.02002 98.5742 3.48907 98.3246 2.99319C97.8139 1.99799 97.0041 1.18791 96.0091 0.676873C95.5116 0.426401 94.9795 0.251566 94.4304 0.158146C93.8834 0.066961 93.3303 0.0180708 92.7758 0.0119091C92.5237 0.00787183 92.2652 0.00302376 92.0131 0.00141049C91.7157 -0.000244141 91.4136 -0.000244141 91.1163 -0.000244141V-0.00013659Z" fill="#A6A6A6"/>
<path d="M6.98694 32.3685C6.73488 32.3685 6.4889 32.3652 6.23881 32.3596C5.72073 32.3529 5.20386 32.3078 4.69244 32.2247C4.21557 32.1426 3.75361 31.9898 3.32179 31.7714C2.89394 31.5548 2.5037 31.2708 2.16603 30.9303C1.82348 30.5939 1.53828 30.2036 1.32175 29.775C1.10283 29.3436 0.951329 28.8813 0.872516 28.404C0.787406 27.8911 0.741357 27.3726 0.734768 26.8528C0.729523 26.6783 0.722656 26.0973 0.722656 26.0973V6.98587C0.722656 6.98587 0.72997 6.41385 0.73481 6.2458C0.741119 5.72681 0.786899 5.20905 0.871755 4.69701C0.950713 4.21842 1.10233 3.75471 1.32137 3.32193C1.5371 2.89364 1.82072 2.50307 2.16121 2.16538C2.50132 1.82448 2.89281 1.53904 3.32139 1.31947C3.75221 1.10179 4.2133 0.950096 4.68921 0.869464C5.20231 0.785546 5.72097 0.740176 6.24085 0.733734L6.98735 0.723633H92.0094L92.7648 0.73414C93.28 0.740261 93.7939 0.785226 94.3023 0.868653C94.783 0.950297 95.2489 1.10305 95.6847 1.3219C96.5433 1.76438 97.2419 2.46444 97.6827 3.32395C97.8982 3.75374 98.0475 4.21367 98.1254 4.68812C98.2113 5.20437 98.2594 5.7262 98.2692 6.24944C98.2716 6.48374 98.2716 6.73541 98.2716 6.98587C98.2782 7.29611 98.2782 7.59141 98.2782 7.88912V25.2037C98.2782 25.5043 98.2782 25.7976 98.2716 26.0933C98.2716 26.3623 98.2716 26.6088 98.2684 26.8624C98.2587 27.3763 98.2115 27.8889 98.127 28.3959C98.0498 28.8766 97.8991 29.3426 97.6803 29.7775C97.4622 30.2014 97.1786 30.5883 96.84 30.9239C96.5021 31.2662 96.1111 31.5519 95.6823 31.7698C95.2477 31.9899 94.7825 32.1432 94.3023 32.2247C93.7909 32.3082 93.274 32.3533 92.7559 32.3596C92.5136 32.3652 92.2598 32.3685 92.0135 32.3685L91.1167 32.3701L6.98694 32.3685Z" fill="black"/>
<path d="M20.4901 16.795C20.499 16.1045 20.6824 15.4275 21.0233 14.8269C21.3642 14.2263 21.8514 13.7217 22.4397 13.36C22.066 12.8262 21.573 12.387 20.9998 12.0771C20.4266 11.7672 19.789 11.5953 19.1378 11.5749C17.7485 11.4291 16.4017 12.4062 15.6937 12.4062C14.9721 12.4062 13.8821 11.5894 12.7084 11.6135C11.9492 11.6381 11.2093 11.8588 10.5607 12.2543C9.91222 12.6498 9.37722 13.2066 9.00785 13.8703C7.40782 16.6405 8.6013 20.7118 10.134 22.951C10.9008 24.0475 11.797 25.2723 12.9697 25.2289C14.1173 25.1813 14.5458 24.4971 15.931 24.4971C17.3033 24.4971 17.7054 25.2289 18.9019 25.2013C20.1333 25.1813 20.9091 24.0999 21.649 22.993C22.2 22.2117 22.624 21.3483 22.9052 20.4345C22.1898 20.132 21.5794 19.6255 21.1499 18.9783C20.7204 18.3311 20.4909 17.5718 20.4901 16.795Z" fill="white"/>
<path d="M18.2289 10.102C18.9003 9.29598 19.2311 8.26003 19.151 7.21411C18.1252 7.32184 17.1777 7.81208 16.4973 8.58713C16.1646 8.96577 15.9098 9.40626 15.7474 9.88343C15.5851 10.3606 15.5183 10.8651 15.5511 11.3681C16.0641 11.3733 16.5717 11.2621 17.0355 11.0428C17.4994 10.8235 17.9074 10.5018 18.2289 10.102Z" fill="white"/>
<path d="M34.9956 22.4528H31.0796L30.1391 25.2297H28.4805L32.1897 14.9561H33.913L37.6221 25.2297H35.9352L34.9956 22.4528ZM31.4851 21.1714H34.5892L33.059 16.6648H33.0162L31.4851 21.1714Z" fill="white"/>
<path d="M45.6318 21.485C45.6318 23.8126 44.386 25.3081 42.5059 25.3081C42.0297 25.333 41.5561 25.2233 41.1393 24.9915C40.7225 24.7598 40.3794 24.4153 40.1492 23.9976H40.1137V27.7076H38.5762V17.7394H40.0644V18.9852H40.0927C40.3334 18.5695 40.6823 18.2269 41.1023 17.9937C41.5222 17.7605 41.9976 17.6456 42.4777 17.661C44.3787 17.6611 45.6318 19.1638 45.6318 21.485ZM44.0515 21.485C44.0515 19.9685 43.2678 18.9715 42.0721 18.9715C40.8974 18.9715 40.1072 19.9895 40.1072 21.485C40.1072 22.9942 40.8974 24.0049 42.0721 24.0049C43.2678 24.0049 44.0515 23.0152 44.0515 21.485Z" fill="white"/>
<path d="M53.876 21.485C53.876 23.8126 52.6301 25.3081 50.7501 25.3081C50.2738 25.333 49.8002 25.2233 49.3834 24.9915C48.9666 24.7597 48.6235 24.4153 48.3934 23.9976H48.3578V27.7076H46.8203V17.7394H48.3085V18.9852H48.3368C48.5775 18.5695 48.9264 18.2269 49.3464 17.9937C49.7663 17.7605 50.2417 17.6456 50.7218 17.661C52.6229 17.661 53.876 19.1638 53.876 21.485ZM52.2956 21.485C52.2956 19.9685 51.512 18.9715 50.3162 18.9715C49.1415 18.9715 48.3514 19.9895 48.3514 21.485C48.3514 22.9942 49.1415 24.0049 50.3162 24.0049C51.512 24.0049 52.2957 23.0152 52.2957 21.485H52.2956Z" fill="white"/>
<path d="M59.3258 22.3671C59.4397 23.3859 60.4295 24.0548 61.7819 24.0548C63.0778 24.0548 64.0102 23.3859 64.0102 22.4672C64.0102 21.6698 63.4479 21.1923 62.1164 20.8651L60.7849 20.5444C58.8984 20.0887 58.0226 19.2064 58.0226 17.7748C58.0226 16.0022 59.5674 14.7847 61.7609 14.7847C63.9318 14.7847 65.42 16.0022 65.4701 17.7748H63.918C63.8251 16.7495 62.9776 16.1307 61.7391 16.1307C60.5005 16.1307 59.653 16.7568 59.653 17.6682C59.653 18.3945 60.1943 18.8219 61.5185 19.1491L62.6504 19.427C64.7583 19.9255 65.6341 20.7722 65.6341 22.2749C65.6341 24.197 64.1031 25.4008 61.668 25.4008C59.3896 25.4008 57.8513 24.2253 57.752 22.367L59.3258 22.3671Z" fill="white"/>
<path d="M68.9502 15.9666V17.7391H70.3746V18.9567H68.9502V23.086C68.9502 23.7275 69.2354 24.0264 69.8616 24.0264C70.0307 24.0235 70.1995 24.0116 70.3673 23.9908V25.2011C70.0858 25.2537 69.7997 25.2775 69.5134 25.2722C67.9969 25.2722 67.4055 24.7026 67.4055 23.25V18.9567H66.3164V17.7391H67.4055V15.9666H68.9502Z" fill="white"/>
<path d="M71.2012 21.4849C71.2012 19.1281 72.5892 17.6472 74.7536 17.6472C76.9253 17.6472 78.3069 19.1281 78.3069 21.4849C78.3069 23.848 76.9326 25.3225 74.7536 25.3225C72.5754 25.3225 71.2012 23.848 71.2012 21.4849ZM76.7403 21.4849C76.7403 19.8682 75.9994 18.914 74.7536 18.914C73.5078 18.914 72.7677 19.8755 72.7677 21.4849C72.7677 23.108 73.5078 24.0549 74.7536 24.0549C75.9994 24.0549 76.7403 23.108 76.7403 21.4849H76.7403Z" fill="white"/>
<path d="M79.5742 17.7394H81.0406V19.0142H81.0762C81.1754 18.6161 81.4087 18.2642 81.7368 18.0177C82.0649 17.7713 82.4678 17.6453 82.8779 17.661C83.055 17.6604 83.2317 17.6796 83.4046 17.7183V19.1564C83.1809 19.0881 82.9476 19.0567 82.7138 19.0635C82.4905 19.0545 82.2678 19.0939 82.0611 19.179C81.8544 19.2641 81.6686 19.3929 81.5164 19.5567C81.3641 19.7204 81.2492 19.9151 81.1793 20.1274C81.1095 20.3398 81.0864 20.5647 81.1117 20.7868V25.2296H79.5742L79.5742 17.7394Z" fill="white"/>
<path d="M90.493 23.0296C90.2862 24.3894 88.962 25.3225 87.2678 25.3225C85.0888 25.3225 83.7363 23.8626 83.7363 21.5204C83.7363 19.171 85.0961 17.6472 87.2031 17.6472C89.2755 17.6472 90.5787 19.0708 90.5787 21.3419V21.8686H85.2884V21.9615C85.2639 22.2372 85.2985 22.5149 85.3896 22.7762C85.4808 23.0375 85.6265 23.2764 85.817 23.4771C86.0076 23.6777 86.2387 23.8356 86.495 23.9401C86.7512 24.0446 87.0268 24.0933 87.3033 24.0831C87.6667 24.1172 88.0313 24.033 88.3429 23.8432C88.6546 23.6534 88.8966 23.3681 89.0331 23.0296L90.493 23.0296ZM85.2956 20.7941H89.0404C89.0542 20.5462 89.0166 20.2982 88.93 20.0655C88.8434 19.8329 88.7096 19.6207 88.5371 19.4421C88.3646 19.2636 88.1571 19.1227 87.9275 19.0282C87.6979 18.9337 87.4513 18.8877 87.2031 18.893C86.9528 18.8915 86.7046 18.9396 86.4729 19.0346C86.2412 19.1295 86.0306 19.2694 85.8533 19.4461C85.6759 19.6229 85.5354 19.833 85.4396 20.0643C85.3439 20.2957 85.295 20.5437 85.2956 20.7941V20.7941Z" fill="white"/>
<path d="M31.2948 7.22313C31.6171 7.2 31.9406 7.2487 32.2418 7.36571C32.5431 7.48272 32.8146 7.66512 33.0368 7.89977C33.259 8.13442 33.4263 8.41546 33.5268 8.72261C33.6272 9.02977 33.6582 9.35539 33.6176 9.67599C33.6176 11.2531 32.7652 12.1596 31.2948 12.1596H29.5117V7.22313H31.2948ZM30.2784 11.4615H31.2092C31.4395 11.4752 31.67 11.4375 31.8839 11.3509C32.0978 11.2644 32.2897 11.1312 32.4456 10.9612C32.6016 10.7911 32.7176 10.5884 32.7854 10.3678C32.8531 10.1472 32.8708 9.91433 32.8371 9.68605C32.8683 9.45868 32.8488 9.22722 32.7801 9.00826C32.7113 8.7893 32.595 8.58826 32.4394 8.41954C32.2838 8.25083 32.0928 8.11861 31.8801 8.03238C31.6674 7.94614 31.4383 7.90802 31.2092 7.92073H30.2784V11.4615Z" fill="white"/>
<path d="M34.4849 10.2952C34.4615 10.0504 34.4895 9.8034 34.5671 9.57004C34.6447 9.33668 34.7703 9.12212 34.9357 8.94013C35.1011 8.75813 35.3027 8.61272 35.5276 8.51321C35.7526 8.41371 35.9958 8.3623 36.2417 8.3623C36.4876 8.3623 36.7309 8.41371 36.9558 8.51321C37.1807 8.61272 37.3823 8.75813 37.5477 8.94013C37.7131 9.12212 37.8387 9.33668 37.9163 9.57004C37.994 9.8034 38.022 10.0504 37.9985 10.2952C38.0224 10.5403 37.9947 10.7876 37.9173 11.0214C37.8399 11.2551 37.7144 11.4701 37.5489 11.6524C37.3835 11.8348 37.1817 11.9805 36.9566 12.0802C36.7314 12.1799 36.4879 12.2315 36.2417 12.2315C35.9955 12.2315 35.752 12.1799 35.5268 12.0802C35.3017 11.9805 35.0999 11.8348 34.9345 11.6524C34.769 11.4701 34.6435 11.2551 34.5661 11.0214C34.4887 10.7876 34.461 10.5403 34.4849 10.2952ZM37.2423 10.2952C37.2423 9.48771 36.8796 9.01548 36.2429 9.01548C35.6039 9.01548 35.2443 9.48771 35.2443 10.2952C35.2443 11.1092 35.6039 11.5778 36.2429 11.5778C36.8796 11.5778 37.2423 11.106 37.2423 10.2952H37.2423Z" fill="white"/>
<path d="M42.6672 12.1597H41.9045L41.1345 9.41595H41.0764L40.3096 12.1597H39.5542L38.5273 8.43433H39.2731L39.9404 11.277H39.9954L40.7613 8.43433H41.4666L42.2325 11.277H42.2907L42.9548 8.43433H43.69L42.6672 12.1597Z" fill="white"/>
<path d="M44.5527 8.43422H45.2605V9.02602H45.3154C45.4086 8.81347 45.5658 8.63529 45.7651 8.51632C45.9644 8.39734 46.1958 8.34351 46.4271 8.36231C46.6084 8.34868 46.7904 8.37601 46.9597 8.44228C47.1289 8.50854 47.2811 8.61204 47.405 8.74511C47.5288 8.87818 47.6211 9.03741 47.675 9.21099C47.729 9.38458 47.7432 9.56808 47.7166 9.7479V12.1595H46.9814V9.93252C46.9814 9.33385 46.7212 9.03613 46.1775 9.03613C46.0544 9.03039 45.9316 9.05134 45.8173 9.09753C45.7031 9.14372 45.6002 9.21406 45.5158 9.30373C45.4313 9.3934 45.3672 9.50027 45.3278 9.61703C45.2885 9.73379 45.2749 9.85767 45.2879 9.98018V12.1596H44.5527L44.5527 8.43422Z" fill="white"/>
<path d="M48.8887 6.97998H49.6239V12.1596H48.8887V6.97998Z" fill="white"/>
<path d="M50.647 10.2953C50.6236 10.0505 50.6516 9.80344 50.7292 9.57007C50.8069 9.3367 50.9325 9.12214 51.0979 8.94014C51.2633 8.75814 51.465 8.61272 51.6899 8.51321C51.9148 8.41371 52.1581 8.3623 52.404 8.3623C52.65 8.3623 52.8932 8.41371 53.1181 8.51321C53.343 8.61272 53.5447 8.75814 53.7101 8.94014C53.8755 9.12214 54.0011 9.3367 54.0788 9.57007C54.1564 9.80344 54.1844 10.0505 54.161 10.2953C54.1849 10.5404 54.1572 10.7877 54.0797 11.0215C54.0023 11.2552 53.8768 11.4702 53.7113 11.6525C53.5458 11.8348 53.344 11.9806 53.1189 12.0803C52.8937 12.18 52.6502 12.2315 52.404 12.2315C52.1578 12.2315 51.9143 12.18 51.6891 12.0803C51.464 11.9806 51.2622 11.8348 51.0967 11.6525C50.9312 11.4702 50.8057 11.2552 50.7283 11.0215C50.6508 10.7877 50.6231 10.5404 50.647 10.2953ZM53.4044 10.2953C53.4044 9.48778 53.0416 9.01555 52.405 9.01555C51.7659 9.01555 51.4064 9.48778 51.4064 10.2953C51.4064 11.1093 51.766 11.5779 52.405 11.5779C53.0417 11.5779 53.4044 11.1061 53.4044 10.2953H53.4044Z" fill="white"/>
<path d="M54.9355 11.106C54.9355 10.4354 55.4348 10.0488 56.3211 9.9939L57.3302 9.93574V9.61418C57.3302 9.22072 57.0701 8.99854 56.5676 8.99854C56.1571 8.99854 55.8727 9.14922 55.7911 9.41261H55.0794C55.1545 8.77273 55.7564 8.3623 56.6015 8.3623C57.5355 8.3623 58.0622 8.82726 58.0622 9.61418V12.1596H57.3545V11.636H57.2963C57.1782 11.8238 57.0124 11.9769 56.8158 12.0797C56.6193 12.1824 56.3989 12.2312 56.1773 12.2209C56.0209 12.2372 55.8629 12.2205 55.7133 12.172C55.5638 12.1234 55.4261 12.044 55.3091 11.939C55.1921 11.8339 55.0984 11.7055 55.0341 11.5621C54.9697 11.4186 54.9362 11.2632 54.9355 11.106ZM57.3302 10.7877V10.4762L56.4205 10.5344C55.9075 10.5687 55.6748 10.7433 55.6748 11.0717C55.6748 11.407 55.9656 11.6021 56.3656 11.6021C56.4828 11.6139 56.6012 11.6021 56.7137 11.5673C56.8262 11.5325 56.9306 11.4754 57.0206 11.3994C57.1106 11.3234 57.1844 11.2301 57.2376 11.125C57.2908 11.0199 57.3223 10.9052 57.3302 10.7877Z" fill="white"/>
<path d="M59.0293 10.2953C59.0293 9.11817 59.6344 8.37245 60.5757 8.37245C60.8085 8.36172 61.0396 8.41749 61.2419 8.53323C61.4442 8.64896 61.6093 8.81989 61.7181 9.02603H61.773V6.97998H62.5082V12.1596H61.8037V11.571H61.7455C61.6284 11.7758 61.4575 11.9446 61.2513 12.0591C61.045 12.1737 60.8114 12.2297 60.5757 12.221C59.628 12.221 59.0293 11.4753 59.0293 10.2953ZM59.7888 10.2953C59.7888 11.0855 60.1612 11.5609 60.7841 11.5609C61.4038 11.5609 61.7868 11.0786 61.7868 10.2986C61.7868 9.52213 61.3998 9.03293 60.7841 9.03293C60.1652 9.03293 59.7887 9.51162 59.7887 10.2953H59.7888Z" fill="white"/>
<path d="M65.5493 10.2952C65.5259 10.0504 65.5539 9.8034 65.6315 9.57004C65.7092 9.33668 65.8347 9.12212 66.0001 8.94013C66.1656 8.75813 66.3672 8.61272 66.5921 8.51321C66.817 8.41371 67.0602 8.3623 67.3062 8.3623C67.5521 8.3623 67.7953 8.41371 68.0202 8.51321C68.2451 8.61272 68.4468 8.75813 68.6122 8.94013C68.7776 9.12212 68.9031 9.33668 68.9808 9.57004C69.0584 9.8034 69.0864 10.0504 69.063 10.2952C69.0869 10.5403 69.0592 10.7876 68.9818 11.0214C68.9043 11.2551 68.7788 11.4701 68.6134 11.6524C68.4479 11.8348 68.2462 11.9805 68.021 12.0802C67.7959 12.1799 67.5524 12.2315 67.3062 12.2315C67.0599 12.2315 66.8164 12.1799 66.5913 12.0802C66.3662 11.9805 66.1644 11.8348 65.9989 11.6524C65.8335 11.4701 65.708 11.2551 65.6306 11.0214C65.5531 10.7876 65.5255 10.5403 65.5493 10.2952ZM68.3068 10.2952C68.3068 9.48771 67.944 9.01548 67.3074 9.01548C66.6683 9.01548 66.3088 9.48771 66.3088 10.2952C66.3088 11.1092 66.6683 11.5778 67.3074 11.5778C67.944 11.5778 68.3068 11.106 68.3068 10.2952Z" fill="white"/>
<path d="M70.0488 8.43422H70.7566V9.02602H70.8115C70.9047 8.81347 71.0619 8.63529 71.2612 8.51632C71.4605 8.39734 71.6919 8.34351 71.9232 8.36231C72.1045 8.34868 72.2865 8.37601 72.4558 8.44228C72.625 8.50854 72.7772 8.61204 72.9011 8.74511C73.0249 8.87818 73.1172 9.03741 73.1711 9.21099C73.2251 9.38458 73.2393 9.56808 73.2127 9.7479V12.1595H72.4775V9.93252C72.4775 9.33385 72.2173 9.03613 71.6736 9.03613C71.5505 9.03039 71.4276 9.05134 71.3134 9.09753C71.1992 9.14372 71.0963 9.21406 71.0118 9.30373C70.9274 9.3934 70.8633 9.50027 70.8239 9.61703C70.7846 9.73379 70.771 9.85767 70.784 9.98018V12.1596H70.0488V8.43422Z" fill="white"/>
<path d="M77.3684 7.50684V8.4513H78.1756V9.07058H77.3684V10.9862C77.3684 11.3764 77.5292 11.5473 77.8952 11.5473C77.9889 11.547 78.0825 11.5413 78.1756 11.5303V12.1427C78.0435 12.1663 77.9098 12.1789 77.7756 12.1803C76.958 12.1803 76.6324 11.8927 76.6324 11.1744V9.07055H76.041V8.45127H76.6324V7.50684H77.3684Z" fill="white"/>
<path d="M79.1777 6.97998H79.9065V9.03292H79.9646C80.0624 8.81838 80.2239 8.63919 80.4272 8.51977C80.6304 8.40035 80.8656 8.34651 81.1006 8.36558C81.2809 8.35576 81.4611 8.38587 81.6285 8.45375C81.7958 8.52162 81.9461 8.62559 82.0687 8.75824C82.1912 8.89089 82.283 9.04895 82.3374 9.22114C82.3918 9.39334 82.4076 9.57542 82.3835 9.7544V12.1596H81.6476V9.93577C81.6476 9.34073 81.3704 9.03938 80.851 9.03938C80.7246 9.02901 80.5975 9.04639 80.4786 9.09028C80.3596 9.13417 80.2517 9.20352 80.1623 9.29348C80.073 9.38344 80.0044 9.49184 79.9613 9.61108C79.9182 9.73033 79.9017 9.85755 79.913 9.98384V12.1596H79.1778L79.1777 6.97998Z" fill="white"/>
<path d="M86.6713 11.1537C86.5714 11.4942 86.355 11.7887 86.0599 11.9858C85.7648 12.1828 85.4098 12.2698 85.0571 12.2315C84.8116 12.238 84.5677 12.191 84.3423 12.0938C84.1168 11.9965 83.9153 11.8514 83.7515 11.6684C83.5878 11.4855 83.4658 11.2691 83.3941 11.0343C83.3224 10.7995 83.3026 10.5519 83.3362 10.3087C83.3035 10.0647 83.3236 9.81656 83.3952 9.58105C83.4667 9.34553 83.5881 9.12814 83.7509 8.94359C83.9138 8.75903 84.1144 8.61163 84.3392 8.51135C84.564 8.41108 84.8077 8.36027 85.0538 8.36237C86.0904 8.36237 86.7157 9.07055 86.7157 10.2404V10.4969H84.0851V10.5381C84.0736 10.6748 84.0908 10.8124 84.1356 10.9421C84.1804 11.0718 84.2517 11.1907 84.3452 11.2912C84.4386 11.3917 84.552 11.4715 84.678 11.5256C84.8041 11.5797 84.9401 11.6069 85.0773 11.6054C85.2531 11.6265 85.4313 11.5948 85.5891 11.5144C85.747 11.434 85.8773 11.3084 85.9636 11.1537L86.6713 11.1537ZM84.0851 9.95317H85.9668C85.976 9.82814 85.9591 9.70255 85.9169 9.58448C85.8747 9.46641 85.8084 9.35846 85.722 9.26757C85.6356 9.17669 85.5312 9.10487 85.4154 9.05674C85.2997 9.00861 85.1751 8.98523 85.0498 8.98811C84.9226 8.98651 84.7964 9.01038 84.6787 9.05832C84.5609 9.10626 84.4539 9.17729 84.364 9.26723C84.2741 9.35717 84.2031 9.4642 84.1552 9.58201C84.1073 9.69981 84.0835 9.82602 84.0851 9.95317H84.0851Z" fill="white"/>
</g>
<defs>
<clipPath id="clip0">
<rect width="99" height="33.0926" fill="white"/>
</clipPath>
</defs>
</svg>
